<svg width="4505" height="2418" viewBox="0 0 4505 2418" fill="none" xmlns="http://www.w3.org/2000/svg">
<path d="M4269 880.803C4269 880.803 2016.17 881.265 2015.02 881.496H602C602 908.973 602 812.689 602 840.627H4023.14C4087.6 866.95 4169.32 881.496 4269 880.803Z" fill="white"/>
<path d="M2403.28 881.596C2272.99 881.596 2142.93 897.012 2017.24 930.835C1535.67 1060.38 1237.33 1263.08 1237.33 1527C1237.33 1717.28 1457.4 1878.11 1854.49 1878.11C2350.11 1878.11 2606.31 1654.92 2648.9 1208.78C2540.48 1205.56 2432.29 1202.11 2330.54 1202.11C2153.29 1202.11 2087.68 1274.36 2041.64 1520.32H2012.18C2051.54 1156.09 2153.29 1053.01 2461.98 1053.01C2622.89 1053.01 2849.4 1066.13 2938.03 1066.13C3121.95 1066.13 3153.26 1067.74 3208.97 952.924H3248.79C3210.12 1065.21 3183.42 1143.44 3153.49 1228.34C3031.95 1225.12 2868.97 1218.45 2688.26 1212C2671.92 1769.74 2432.29 2084.73 1795.33 2084.73C1319.28 2084.73 1089.55 1835.31 1089.55 1490.87C1089.55 1195.44 1569.28 969.26 2019.08 880.906C1919.41 881.597 2403.51 881.596 2403.51 881.596H2403.28Z" fill="white"/>
<path d="M2394.77 50.2301C1977.88 50.2301 1787.51 292.974 1787.51 529.275C1787.51 665.257 1849.89 781.912 1995.15 840.584H2412.5C2055.69 834.372 1837 732.213 1837 617.859C1837 417.682 2089.76 207.611 2444.26 207.611C2667.55 207.611 2723.26 302.867 2697.02 522.602L2671.93 755.222H2704.85L2874.27 161.593C2778.97 105.911 2614.84 50 2395 50L2394.77 50.2301Z" fill="white"/>
<path d="M3881.9 1061.23C3978.61 1035.21 4275.19 952.335 4423.94 879.127C4431.54 875.443 4435.22 867.846 4434.99 860.71C4435.22 853.343 4431.54 845.976 4423.94 842.293C4275.19 769.315 3978.61 686.439 3881.9 660.194C3867.62 656.281 3854.5 669.173 3857.72 683.446L3951.21 829.631C3951.21 829.631 3961.11 846.207 3961.11 860.48C3961.11 874.753 3951.21 890.407 3951.21 890.407L3857.49 1037.51C3854.27 1052.02 3867.39 1064.68 3881.67 1060.76L3881.9 1061.23Z" fill="white"/>
<path d="M98.8964 1061.99C179.016 1040.3 498.801 969.449 605.857 951.448C629.571 947.524 647.759 927.908 649.831 903.675C652.133 877.596 652.133 865.365 651.903 861.21C651.903 857.287 650.982 848.286 648.91 824.977C646.838 801.668 629.11 781.82 605.857 777.435C498.801 757.819 179.016 681.89 98.8964 660.196C84.6223 656.273 71.4992 669.197 74.7224 683.506L168.195 830.054C168.195 830.054 178.095 846.671 178.095 860.98C178.095 875.288 168.195 890.982 168.195 890.982L74.4923 1038.45C71.2691 1052.99 84.3922 1065.69 98.6663 1061.76L98.8964 1061.99Z" fill="white"/>
</svg>
