<svg width="3777" height="3940" viewBox="0 0 3777 3940" fill="none" xmlns="http://www.w3.org/2000/svg">
<g clip-path="url(#clip0_3076_1100)">
<path d="M106.9 2545.38L375.404 2442.34L404.116 2517.18C413.687 2541.9 416.297 2566.61 412.121 2590.8C407.945 2615.17 397.678 2636.92 381.494 2656.07C365.137 2675.21 344.603 2689.48 319.893 2699.06C295.009 2708.63 270.299 2711.59 245.415 2708.28C220.531 2704.97 198.432 2695.57 179.116 2680.26C159.801 2664.94 145.357 2644.93 135.787 2620.04L107.074 2545.2L106.9 2545.38ZM161.541 2610.12C169.197 2630.14 180.508 2645.97 195.473 2657.98C210.439 2669.99 227.84 2677.3 247.852 2679.74C267.863 2682.17 288.223 2679.39 309.105 2671.38C329.986 2663.38 347.04 2651.72 360.265 2636.57C373.316 2621.43 381.494 2604.38 384.627 2585.41C387.759 2566.44 385.497 2546.94 377.84 2527.1L359.917 2480.29L143.617 2563.3L161.541 2610.12Z" fill="#F6F2EE"/>
<path d="M313.977 2981.53L549.243 2816.19L652.26 2962.73L629.464 2978.74L543.675 2856.74L464.673 2912.26L533.408 3010.07L510.96 3025.91L442.225 2928.1L354.174 2990.06L442.225 3115.37L419.429 3131.38L313.977 2981.53Z" fill="#F6F2EE"/>
<path d="M635.729 3364.94C626.158 3356.24 618.501 3346.84 612.585 3336.57C606.669 3326.3 602.84 3315.86 600.752 3305.24C598.664 3294.63 598.49 3284.36 599.882 3274.61L627.55 3274.09C626.332 3287.32 627.898 3300.02 632.075 3312.03C636.251 3324.04 644.082 3335 655.044 3344.93C663.919 3352.93 673.49 3358.33 683.409 3361.11C693.327 3363.72 702.724 3363.9 711.773 3361.11C720.822 3358.5 728.304 3353.8 734.395 3347.19C741.877 3338.83 745.88 3330.13 746.402 3321.26C746.924 3312.38 745.532 3303.5 742.225 3294.8C738.919 3286.1 734.047 3275.13 727.26 3261.73C718.908 3245.37 712.643 3231.62 708.815 3220.83C704.986 3210.04 703.942 3198.21 705.682 3185.68C707.423 3173.15 713.861 3160.61 724.824 3148.43C734.221 3137.99 745.184 3131.03 758.061 3127.2C770.938 3123.37 784.337 3123.37 798.258 3127.02C812.353 3130.68 825.752 3138.16 838.629 3149.82C846.982 3157.31 853.768 3165.84 858.989 3175.06C864.209 3184.46 868.038 3193.68 870.126 3202.91C872.388 3212.13 873.258 3220.66 872.562 3228.67L845.242 3229.54C844.894 3223.27 844.024 3216.83 842.631 3210.04C841.239 3203.25 838.629 3196.29 834.801 3189.51C830.972 3182.54 826.1 3176.28 819.662 3170.71C811.135 3163.05 802.434 3157.83 793.386 3155.39C784.511 3152.78 775.81 3152.78 767.631 3155.05C759.453 3157.48 752.318 3161.83 746.576 3168.45C739.615 3176.1 735.787 3184.46 735.265 3192.99C734.569 3201.69 735.961 3210.39 739.093 3219.09C742.225 3227.79 747.098 3238.76 753.884 3251.81C762.759 3268.17 768.85 3282.1 772.678 3293.23C776.332 3304.55 777.376 3316.38 775.636 3329.09C773.896 3341.79 767.457 3354.5 756.146 3367.03C746.402 3377.82 734.569 3385.3 720.822 3389.31C706.901 3393.48 692.631 3393.31 677.84 3389.31C663.049 3385.3 648.954 3377.12 635.729 3365.11V3364.94Z" fill="#F6F2EE"/>
<path d="M903.885 3562.65L1054.41 3317.6L1079.99 3333.27L929.465 3578.32L903.885 3562.65Z" fill="#F6F2EE"/>
<path d="M1278.01 3746.79C1254.52 3738.44 1235.21 3724.69 1219.89 3705.37C1204.58 3686.05 1195.18 3663.95 1191.53 3638.54C1187.87 3613.3 1190.66 3587.72 1199.88 3561.96C1209.1 3536.2 1223.02 3514.62 1241.82 3497.39C1260.61 3480.16 1282.02 3468.85 1306.03 3463.45C1330.04 3458.23 1353.71 3459.8 1377.2 3467.98C1399.65 3475.98 1417.57 3488.17 1430.97 3504.35C1444.37 3520.54 1453.77 3538.81 1458.99 3559L1432.89 3567.18C1428.01 3550.65 1420.53 3536.03 1410.26 3523.15C1400 3510.27 1385.9 3500.7 1367.8 3494.26C1349.53 3487.64 1331.09 3486.77 1312.47 3491.12C1293.85 3495.48 1277.14 3504.7 1262 3518.8C1247.04 3532.72 1235.73 3550.47 1228.07 3571.88C1220.41 3593.29 1217.98 3614.17 1220.76 3634.54C1223.55 3654.9 1230.68 3672.65 1242.34 3687.79C1254 3702.93 1268.96 3713.9 1287.24 3720.34C1298.55 3724.34 1310.03 3726.26 1321.52 3726.26C1333 3726.26 1343.62 3724.52 1353.19 3721.21C1362.76 3717.9 1370.94 3713.9 1377.55 3709.03L1396.34 3656.46L1336.31 3635.06L1345.18 3610.34L1433.41 3641.67L1402.78 3728C1393.04 3735.65 1381.55 3741.75 1368.15 3746.44C1354.75 3751.14 1340.14 3753.75 1324.47 3754.28C1308.81 3754.8 1293.33 3752.36 1278.01 3746.97V3746.79Z" fill="#F6F2EE"/>
<path d="M1628.48 3831.38L1653.36 3544.91L1679.46 3547.17L1817.46 3790.48H1818.33L1838.17 3560.92L1868.1 3563.53L1843.21 3850L1817.46 3847.74L1678.94 3604.43H1678.07L1658.24 3833.99L1628.3 3831.38H1628.48Z" fill="#F6F2EE"/>
<path d="M2083.35 3730.43L2080.04 3705.54L2190.37 3690.75L2193.68 3715.64L2083.35 3730.43Z" fill="#F6F2EE"/>
<path d="M2453.13 3767.33L2356.38 3496.52L2446.17 3464.5C2460.79 3459.28 2475.06 3457.54 2488.63 3459.45C2502.2 3461.37 2514.04 3466.41 2523.95 3474.77C2533.87 3483.12 2541.18 3493.74 2545.88 3506.62C2549.36 3516.36 2550.75 3525.93 2550.06 3534.98C2549.36 3544.04 2547.1 3552.39 2543.1 3559.7C2539.09 3567.01 2534.4 3572.93 2528.65 3577.28C2538.05 3576.76 2547.79 3578.32 2557.71 3581.45C2567.63 3584.76 2576.68 3590.33 2584.86 3598.16C2593.04 3605.99 2599.13 3615.74 2603.3 3627.4C2608.53 3641.85 2609.57 3656.12 2606.78 3670.22C2604 3684.31 2597.39 3697.02 2587.3 3708.16C2577.03 3719.3 2563.8 3727.82 2547.62 3733.74L2453.3 3767.51L2453.13 3767.33ZM2486.72 3580.76C2496.81 3577.1 2504.64 3572.23 2510.38 3565.96C2516.12 3559.7 2519.78 3552.39 2521 3544.04C2522.39 3535.68 2521.52 3526.98 2518.21 3517.93C2513.34 3504.18 2505.16 3494.96 2493.85 3489.73C2482.54 3484.51 2469.31 3484.86 2454.35 3490.08L2393.62 3511.84L2425.98 3602.34L2486.72 3580.58V3580.76ZM2538.4 3707.98C2549.19 3704.15 2558.06 3698.58 2564.85 3691.1C2571.63 3683.79 2575.98 3675.26 2577.55 3665.86C2579.29 3656.47 2578.25 3646.55 2574.59 3636.1C2570.94 3626.01 2565.54 3617.83 2558.06 3611.22C2550.58 3604.78 2541.88 3600.77 2531.96 3599.21C2522.04 3597.64 2511.6 3598.86 2500.64 3602.69L2434.51 3626.36L2472.1 3731.65L2538.22 3707.98H2538.4Z" fill="#F6F2EE"/>
<path d="M2942.11 3538.12C2925.75 3549.08 2908 3555 2889.38 3555.87C2870.76 3556.74 2852.67 3552.91 2835.79 3544.21C2818.73 3535.5 2804.46 3522.45 2792.98 3505.05L2692.57 3353.8L2717.63 3337.27L2817.86 3488.16C2826.56 3501.22 2837.01 3511.14 2849.71 3517.93C2862.24 3524.71 2875.29 3527.85 2889.04 3527.32C2902.61 3526.8 2915.31 3522.63 2926.97 3514.97C2938.8 3507.14 2947.68 3497.04 2953.42 3484.51C2959.16 3472.15 2961.43 3458.93 2960.03 3444.65C2958.64 3430.38 2953.6 3416.81 2945.07 3403.93L2844.84 3253.03L2869.89 3236.5L2970.3 3387.74C2981.79 3405.15 2988.4 3423.25 2989.96 3442.22C2991.53 3461.19 2988.22 3479.11 2980.22 3496.17C2972.04 3513.05 2959.51 3527.15 2942.63 3538.46L2942.11 3538.12Z" fill="#F6F2EE"/>
<path d="M3226.1 3301.25L3021.81 3098.83L3042.86 3077.6L3247.16 3280.01L3226.1 3301.25Z" fill="#F6F2EE"/>
<path d="M3431.26 3062.11L3191.99 2902.68L3208.7 2877.8L3424.82 3021.73L3498.6 2910.86L3521.92 2926.35L3431.61 3062.11H3431.26Z" fill="#F6F2EE"/>
<path d="M3633.47 2706.54L3363.4 2607.86L3390.89 2532.67C3399.94 2507.79 3414.03 2487.42 3433.18 2471.76C3452.32 2456.1 3474.24 2446.52 3499.13 2442.69C3524.01 2438.87 3548.9 2441.65 3573.78 2450.7C3598.66 2459.75 3619.55 2473.85 3636.08 2492.64C3652.61 2511.62 3663.22 2533.2 3667.75 2557.39C3672.27 2581.58 3670.01 2606.29 3660.96 2631.18L3633.47 2706.37V2706.54ZM3634.68 2621.78C3641.99 2601.77 3643.91 2582.28 3640.43 2563.31C3636.95 2544.51 3628.59 2527.45 3615.19 2512.49C3601.8 2497.52 3584.57 2486.21 3563.51 2478.55C3542.46 2470.89 3521.92 2468.45 3502.09 2471.24C3482.25 2474.02 3464.85 2481.51 3450.06 2493.86C3435.26 2506.05 3424.13 2522.23 3416.82 2542.25L3399.59 2589.41L3617.28 2668.95L3634.51 2621.78H3634.68Z" fill="#F6F2EE"/>
<path d="M335.206 1729.99L54 1669.95L76.7958 1563.43C80.4501 1546.03 87.0626 1531.41 96.2854 1519.23C105.508 1507.22 116.645 1498.87 129.348 1493.99C142.051 1489.12 155.276 1488.25 169.023 1491.03C178.072 1492.95 186.251 1496.43 193.385 1501.48C200.52 1506.52 206.262 1512.44 210.439 1519.23C214.615 1526.02 217.399 1532.98 218.965 1540.29C223.664 1532.98 229.928 1526.02 237.933 1519.75C245.937 1513.48 255.16 1508.79 265.775 1506C276.39 1503.22 287.527 1502.87 298.664 1505.3C313.629 1508.44 326.506 1515.4 337.121 1525.84C347.736 1536.46 355.044 1549.69 359.046 1565.87C363.049 1582.06 363.049 1599.64 359.046 1618.61L335.206 1729.82V1729.99ZM190.253 1590.59C191.819 1583.62 191.645 1577.18 190.253 1571.44C188.687 1565.7 185.555 1560.82 180.856 1556.82C176.158 1552.82 170.415 1550.21 164.151 1548.82C153.71 1546.55 144.835 1547.95 137.527 1552.82C130.218 1557.69 125.346 1565.52 123.084 1576.14L113.165 1622.44L180.682 1636.88L190.601 1590.59H190.253ZM311.889 1611.12C313.629 1603.29 313.455 1595.98 311.889 1589.19C310.148 1582.41 306.494 1576.66 301.1 1571.96C295.705 1567.26 289.093 1564.13 281.262 1562.56C273.432 1560.82 266.297 1561.17 259.51 1563.09C252.724 1565.18 247.155 1568.83 242.457 1574.4C237.759 1579.79 234.626 1586.41 232.886 1594.24L221.923 1645.76L301.1 1662.64L312.063 1611.3L311.889 1611.12Z" fill="#F6F2EE"/>
<path d="M458.061 1314.38L203.305 1180.89L293.444 1008.77L338.514 1032.44L275.694 1152.52L333.467 1182.81L382.365 1089.17L424.302 1111.1L375.404 1204.56L440.138 1238.5L504.871 1114.76L549.94 1138.43L457.887 1314.21L458.061 1314.38Z" fill="#F6F2EE"/>
<path d="M680.451 957.941L470.416 761.621L510.439 718.633L680.625 877.707L763.107 789.468L802.957 826.713L680.451 957.941Z" fill="#F6F2EE"/>
<path d="M971.227 685.568L813.57 445.042L862.642 412.844L990.194 607.771L1091.3 541.635L1121.23 587.234L971.053 685.568H971.227Z" fill="#F6F2EE"/>
<path d="M1343.62 483.157L1178.48 232.188L1237.99 214.436L1345.01 386.564L1346.23 386.215L1342.05 183.456L1391.3 168.837L1498.66 340.964L1499.88 340.616L1496.05 137.683L1554 120.453L1552.61 420.85L1501.45 436.166L1393.56 266.474L1392.34 266.823L1395.65 467.667L1344.14 482.983L1343.62 483.157Z" fill="#F6F2EE"/>
<path d="M1820.76 385.518L1822.68 98L2017.05 99.2183L2016.7 150.213L1881.15 149.342L1880.8 214.608L1986.42 215.304L1986.08 262.47L1880.45 261.774L1879.93 334.871L2019.66 335.742L2019.31 386.736L1820.94 385.344L1820.76 385.518Z" fill="#F6F2EE"/>
<path d="M2216.47 411.974L2394.14 164.312L2457.13 182.761L2473.49 487.161L2413.98 469.756L2411.19 398.747L2314.96 370.552L2274.77 429.031L2216.47 411.974ZM2341.76 329.304L2411.54 349.667L2407.89 233.407H2407.19L2341.93 329.13L2341.76 329.304Z" fill="#F6F2EE"/>
<path d="M2674.48 588.104L2792.81 386.911L2727.72 348.622L2755.22 301.805L2936.19 408.318L2908.7 455.136L2843.62 416.847L2725.29 618.039L2674.65 588.278L2674.48 588.104Z" fill="#F6F2EE"/>
<path d="M2958.64 787.732L3165.37 587.758L3206.26 630.05L3123.61 709.935L3198.78 787.558L3281.44 707.673L3322.5 750.139L3115.78 949.939L3074.71 907.473L3160.67 824.455L3085.67 746.832L2999.71 829.85L2958.81 787.558L2958.64 787.732Z" fill="#F6F2EE"/>
<path d="M3252.72 1143.64L3506.61 1008.59L3597.79 1180.19L3552.9 1204.21L3489.21 1084.47L3431.61 1115.1L3481.2 1208.39L3439.44 1230.66L3389.85 1137.38L3325.29 1171.66L3390.89 1294.89L3346 1318.9L3252.9 1143.64H3252.72Z" fill="#F6F2EE"/>
<path d="M3421.34 1527.23L3702.2 1465.45L3726.22 1574.92C3730.39 1593.71 3730.04 1611.12 3725.17 1627.3C3720.3 1643.49 3711.77 1657.07 3699.42 1667.86C3687.06 1678.65 3672.27 1685.96 3655.22 1689.79C3637.64 1693.61 3620.94 1693.27 3605.1 1688.57C3589.27 1683.87 3575.87 1675.17 3564.73 1662.46C3553.59 1649.76 3545.94 1634.09 3541.76 1615.3L3530.28 1563.08L3434.05 1584.32L3421.34 1526.88V1527.23ZM3454.75 1678.82L3563.34 1591.45L3576.56 1651.32L3468.68 1742L3454.75 1678.99V1678.82ZM3590.49 1600.5C3592.4 1609.03 3595.71 1615.99 3600.75 1621.39C3605.8 1626.78 3611.72 1630.44 3618.85 1632.35C3625.98 1634.27 3633.81 1634.27 3642.34 1632.35C3650.69 1630.44 3657.65 1627.3 3663.57 1622.43C3669.31 1617.56 3673.32 1611.81 3675.23 1604.85C3677.14 1597.89 3677.32 1590.23 3675.23 1581.71L3664.62 1533.5L3579.52 1552.29L3590.14 1600.5H3590.49Z" fill="#F6F2EE"/>
<path d="M1163.16 2450.53C1162.64 2442.35 1162.47 2437.3 1161.95 2429.99C1194.31 2424.6 1225.81 2419.55 1257.31 2413.81C1297.68 2406.32 1310.73 2393.79 1315.77 2352.2C1320.47 2312.69 1324.65 2272.83 1325 2233.15C1326.04 2066.25 1326.39 1899.34 1325 1732.61C1324.47 1684.4 1319.08 1635.84 1311.95 1588.15C1306.55 1552.3 1291.06 1541.16 1255.04 1536.29C1229.46 1532.81 1203.71 1530.2 1178.3 1525.5C1171.34 1524.28 1165.77 1516.45 1159.51 1511.75C1160.73 1509.14 1162.12 1506.53 1163.34 1503.92C1171.52 1503.39 1179.87 1502.52 1188.05 1502.52C1335.44 1502.52 1482.83 1501.3 1630.22 1503.22C1672.85 1503.74 1716.35 1509.14 1757.94 1519.23C1889.67 1551.25 1945.88 1691.18 1876.62 1808.49C1848.08 1856.87 1809.28 1894.64 1760.73 1922.31C1753.59 1926.49 1746.63 1931.01 1737.41 1936.58C1767.51 1943.72 1795.01 1948.42 1821.46 1956.6C1898.89 1980.96 1956.15 2026.04 1972.33 2110.63C1992.17 2215.05 1957.54 2300.16 1878.01 2367.86C1811.54 2424.6 1732.54 2450.01 1646.05 2450.53C1495.53 2451.57 1345.01 2450.88 1194.49 2450.88H1163.34L1163.16 2450.53ZM1434.97 1972.26C1437.06 2125.25 1429.58 2275.62 1448.02 2428.08C1517.46 2420.25 1582.19 2415.03 1646.23 2404.76C1690.6 2397.62 1734.8 2385.61 1777.61 2371.52C1823.2 2356.37 1847.73 2321.22 1853.83 2273.53C1860.96 2217.14 1859.92 2161.1 1846.69 2105.75C1825.29 2015.95 1770.65 1967.91 1678.59 1957.82C1597.85 1948.94 1518.33 1963.04 1434.97 1972.26ZM1434.97 1933.63C1447.33 1933.63 1456.55 1933.63 1465.77 1933.63C1533.81 1933.63 1602.2 1930.14 1670.07 1935.02C1707.31 1937.8 1727.49 1921.79 1745.07 1895.68C1754.64 1881.59 1762.82 1866.1 1768.91 1850.08C1790.83 1791.95 1796.23 1731.74 1787.53 1670.13C1779.52 1613.91 1750.46 1574.58 1696.69 1555.43C1617.17 1527.06 1534.16 1529.5 1447.68 1525.84C1429.75 1661.25 1436.89 1795.44 1434.97 1933.45V1933.63Z" fill="#F6F2EE"/>
<path d="M2047.15 1740.79C2056.03 1683.7 2061.42 1625.23 2101.62 1578.41C2125.11 1550.91 2160.96 1551.78 2186.37 1577.71C2217.17 1609.39 2225.52 1649.07 2212.12 1688.58C2197.68 1731.22 2174.53 1770.72 2155.74 1811.97C2145.99 1833.21 2134.51 1854.61 2129.98 1877.06C2126.33 1895.16 2128.07 1916.4 2133.99 1933.98C2143.73 1962.52 2171.57 1975.05 2198.55 1961.65C2223.26 1949.47 2246.05 1931.89 2266.41 1913.09C2282.77 1897.95 2294.43 1877.59 2307.48 1858.96C2325.75 1832.68 2333.93 1804.49 2333.76 1771.25C2333.58 1723.73 2339.5 1676.22 2344.2 1628.71C2346.28 1607.13 2351.85 1585.89 2356.38 1562.4C2378.82 1563.96 2399.53 1565.53 2425.46 1567.27C2422.33 1584.85 2421.28 1601.03 2416.24 1616C2396.75 1675.35 2375.17 1734.18 2356.2 1793.52C2351.5 1808.32 2349.07 1826.07 2352.9 1840.69C2362.12 1875.15 2372.73 1909.78 2388.57 1941.46C2403.01 1970.18 2429.64 1975.57 2456.26 1956.95C2474.18 1944.42 2490.54 1926.67 2501.16 1907.7C2540.83 1837.21 2551.62 1758.54 2557.02 1679.53C2559.63 1641.59 2557.54 1603.12 2557.54 1561.18C2587.29 1563.79 2612.35 1565.88 2641.41 1568.49C2630.62 1609.39 2621.75 1648.03 2610.09 1685.97C2581.73 1777.34 2549.01 1866.97 2498.72 1948.94C2482.54 1975.22 2462.53 2000.29 2440.43 2021.69C2416.93 2044.32 2393.27 2038.92 2376.39 2010.55C2349.94 1966.52 2344.02 1916.4 2337.58 1866.8C2337.06 1862.1 2336.89 1857.57 2336.02 1852.87C2335.84 1851.65 2334.28 1850.44 2332.89 1848.87C2314.96 1877.93 2299.65 1908.04 2279.29 1934.15C2255.45 1964.61 2228.48 1993.5 2199.94 2019.61C2175.92 2041.53 2152.08 2039.79 2124.76 2021.69C2071.69 1986.36 2053.59 1916.57 2086.66 1860.18C2108.76 1822.59 2136.95 1788.48 2161.31 1752.28C2173.49 1734.18 2185.67 1715.55 2194.02 1695.54C2206.03 1666.47 2193.85 1645.24 2163.57 1636.19C2125.11 1624.7 2091.35 1641.41 2075.34 1681.62C2067.34 1701.63 2061.77 1722.52 2054.98 1743.05C2052.55 1742.36 2049.94 1741.49 2047.5 1740.79H2047.15Z" fill="#F6F2EE"/>
<path d="M2420.07 2414.68C2404.58 2357.42 2355.51 2181.63 2312.18 2093.39C2309.92 2088.87 2305.57 2086.78 2301.22 2086.78C2296.86 2086.78 2292.51 2088.7 2290.25 2093.39C2246.92 2181.63 2197.85 2357.24 2182.36 2414.68C2180.1 2423.2 2187.58 2430.86 2196.11 2428.95L2282.77 2373.43C2282.77 2373.43 2292.51 2367.51 2301.04 2367.51C2309.57 2367.51 2318.79 2373.25 2318.79 2373.25L2405.97 2428.77C2414.5 2430.69 2422.15 2422.86 2419.72 2414.5L2420.07 2414.68Z" fill="#F6F2EE"/>
<path d="M2420.07 2414.68C2404.58 2357.42 2355.51 2181.63 2312.18 2093.39C2309.92 2088.87 2305.57 2086.78 2301.22 2086.78C2296.86 2086.78 2292.51 2088.7 2290.25 2093.39C2246.92 2181.63 2197.85 2357.24 2182.36 2414.68C2180.1 2423.2 2187.58 2430.86 2196.11 2428.95L2282.77 2373.43C2282.77 2373.43 2292.51 2367.51 2301.04 2367.51C2309.57 2367.51 2318.79 2373.25 2318.79 2373.25L2405.97 2428.77C2414.5 2430.69 2422.15 2422.86 2419.72 2414.5L2420.07 2414.68Z" fill="#F6F2EE"/>
</g>
<defs>
<clipPath id="clip0_3076_1100">
<rect width="3675" height="3752" fill="white" transform="translate(54 98)"/>
</clipPath>
</defs>
</svg>
