<svg width="3192" height="3157" viewBox="0 0 3192 3157" fill="none" xmlns="http://www.w3.org/2000/svg">
<g clip-path="url(#clip0_3073_1525)">
<path d="M1682.5 323.188C1668.88 273.534 1625.84 121.063 1587.97 44.6924C1586.06 40.6445 1582.25 38.7554 1578.44 39.0253C1574.62 39.0253 1570.81 40.6445 1568.9 44.6924C1531.03 121.063 1487.99 273.534 1474.37 323.188C1472.46 330.474 1479 337.221 1486.36 335.602L1562.36 287.566C1562.36 287.566 1571.08 282.439 1578.44 282.439C1585.79 282.439 1593.97 287.566 1593.97 287.566L1670.25 335.871C1677.6 337.491 1684.41 330.744 1682.23 323.458L1682.5 323.188Z" fill="#282828"/>
<path d="M3105 1558.2H2884.49V1568.22H3105V1558.2Z" fill="#282828"/>
<path d="M278.507 1558.2H58V1568.22H278.507V1558.2Z" fill="#282828"/>
<path d="M1586.51 2865.59H1576.49V3085.99H1586.51V2865.59Z" fill="#282828"/>
<path d="M3105 1558.2H2884.49V1568.22H3105V1558.2Z" fill="#282828"/>
<path d="M278.507 1558.2H58V1568.22H278.507V1558.2Z" fill="#282828"/>
<path d="M1925.88 2819.37L1916.2 2821.98L1973.64 3034.78L1983.32 3032.17L1925.88 2819.37Z" fill="#282828"/>
<path d="M1189.31 91.812L1179.63 94.4219L1237.07 307.217L1246.75 304.607L1189.31 91.812Z" fill="#282828"/>
<path d="M322.071 1897.83L109.178 1955.25L111.789 1964.92L324.682 1907.51L322.071 1897.83Z" fill="#282828"/>
<path d="M3050.92 1161.81L2838.03 1219.23L2840.64 1228.9L3053.53 1171.48L3050.92 1161.81Z" fill="#282828"/>
<path d="M2904.47 808.011L2712.65 916.711L2717.59 925.426L2909.42 816.726L2904.47 808.011Z" fill="#282828"/>
<path d="M445.442 2201.32L253.617 2310.02L258.56 2318.74L450.385 2210.04L445.442 2201.32Z" fill="#282828"/>
<path d="M2709.66 2215.08L2704.61 2223.73L2895.09 2334.77L2900.14 2326.11L2709.66 2215.08Z" fill="#282828"/>
<path d="M267.862 791.791L262.812 800.445L453.294 911.48L458.343 902.825L267.862 791.791Z" fill="#282828"/>
<path d="M920.826 2685.8L809.74 2876.2L818.398 2881.24L929.484 2690.85L920.826 2685.8Z" fill="#282828"/>
<path d="M2344.55 245.325L2233.47 435.719L2242.13 440.766L2353.21 250.372L2344.55 245.325Z" fill="#282828"/>
<path d="M2709.66 2215.08L2704.61 2223.73L2895.09 2334.77L2900.14 2326.11L2709.66 2215.08Z" fill="#282828"/>
<path d="M267.862 791.791L262.812 800.445L453.294 911.48L458.343 902.825L267.862 791.791Z" fill="#282828"/>
<path d="M651.19 2474.84L494.346 2629.77L501.391 2636.89L658.235 2481.97L651.19 2474.84Z" fill="#282828"/>
<path d="M2661.51 489.226L2504.67 644.148L2511.71 651.274L2668.56 496.352L2661.51 489.226Z" fill="#282828"/>
<path d="M2500.7 2486.38L2493.57 2493.42L2648.54 2650.22L2655.67 2643.18L2500.7 2486.38Z" fill="#282828"/>
<path d="M514.355 476.514L507.225 483.555L662.191 640.354L669.321 633.313L514.355 476.514Z" fill="#282828"/>
<path d="M2228.39 2693.86L2219.67 2698.8L2328.42 2890.54L2337.14 2885.6L2228.39 2693.86Z" fill="#282828"/>
<path d="M834.415 235.95L825.695 240.891L934.445 432.627L943.165 427.686L834.415 235.95Z" fill="#282828"/>
<path d="M3105 1558.2H2884.49V1568.22H3105V1558.2Z" fill="#282828"/>
<path d="M278.507 1558.2H58V1568.22H278.507V1558.2Z" fill="#282828"/>
<path d="M1618.39 2865.59H1544.42V3085.99H1618.39V2865.59Z" fill="#282828"/>
<path d="M3105 1526.15H2884.49V1600.08H3105V1526.15Z" fill="#282828"/>
<path d="M278.507 1526.15H58V1600.08H278.507V1526.15Z" fill="#282828"/>
<path d="M1931.1 2817.99L1910.98 2823.41L1968.42 3036.21L1988.55 3030.78L1931.1 2817.99Z" fill="#282828"/>
<path d="M1194.53 90.4231L1174.4 95.8516L1231.85 308.647L1251.98 303.218L1194.53 90.4231Z" fill="#282828"/>
<path d="M320.764 1892.48L107.881 1949.93L113.315 1970.05L326.198 1912.59L320.764 1892.48Z" fill="#282828"/>
<path d="M3049.61 1156.41L2836.73 1213.86L2842.16 1233.98L3055.05 1176.52L3049.61 1156.41Z" fill="#282828"/>
<path d="M2901.6 803.073L2709.78 911.773L2720.06 929.901L2911.88 821.201L2901.6 803.073Z" fill="#282828"/>
<path d="M442.772 2196.58L250.947 2305.28L261.229 2323.41L453.053 2214.71L442.772 2196.58Z" fill="#282828"/>
<path d="M2709.66 2215.08L2704.61 2223.73L2895.09 2334.77L2900.14 2326.11L2709.66 2215.08Z" fill="#282828"/>
<path d="M267.862 791.791L262.812 800.445L453.294 911.48L458.343 902.825L267.862 791.791Z" fill="#282828"/>
<path d="M916.148 2683.08L805.062 2873.48L823.072 2883.97L934.157 2693.58L916.148 2683.08Z" fill="#282828"/>
<path d="M2339.88 242.411L2228.79 432.805L2246.8 443.302L2357.89 252.909L2339.88 242.411Z" fill="#282828"/>
<path d="M2712.38 2210.41L2701.88 2228.41L2892.36 2339.45L2902.86 2321.45L2712.38 2210.41Z" fill="#282828"/>
<path d="M270.589 787.116L260.086 805.117L450.567 916.152L461.07 898.151L270.589 787.116Z" fill="#282828"/>
<path d="M647.385 2470.99L490.541 2625.91L505.195 2640.74L662.039 2485.81L647.385 2470.99Z" fill="#282828"/>
<path d="M2657.91 485.57L2501.06 640.492L2515.72 655.314L2672.56 500.392L2657.91 485.57Z" fill="#282828"/>
<path d="M2504.56 2482.58L2489.72 2497.23L2644.69 2654.03L2659.52 2639.38L2504.56 2482.58Z" fill="#282828"/>
<path d="M518.206 472.723L503.375 487.367L658.341 644.166L673.173 629.522L518.206 472.723Z" fill="#282828"/>
<path d="M2233.1 2691.19L2214.96 2701.47L2323.71 2893.2L2341.85 2882.93L2233.1 2691.19Z" fill="#282828"/>
<path d="M839.124 233.278L820.988 243.555L929.738 435.291L947.874 425.014L839.124 233.278Z" fill="#282828"/>
<path d="M1044.06 2190.53V2165.49L1169.55 2144.65C1259.56 2128.02 1261.76 2115.39 1261.76 1586.02C1261.76 996.136 1259.56 991.929 1159.13 977.302L1041.86 960.671V935.625H1644.64C1916.67 935.625 2025.52 1029.8 2025.52 1207.73C2025.52 1341.57 1910.45 1465 1786.97 1513.09C2033.94 1536.13 2123.95 1651.14 2123.95 1816.44C2123.95 2013.21 1931.3 2190.93 1676.12 2190.93H1044.06V2190.53ZM1764.12 1510.68C1837.29 1462.59 1879.18 1355.8 1879.18 1226.16C1879.18 1008.56 1770.33 970.89 1422.93 964.678C1410.31 1010.76 1404.09 1075.48 1404.09 1508.68C1498.31 1506.47 1590.32 1508.68 1684.54 1508.68C1711.8 1508.68 1738.86 1508.68 1764.12 1510.68ZM1404.09 1556.57C1404.09 2033.44 1410.31 2112.99 1422.93 2161.28C1927.29 2121.6 1967.19 2073.32 1967.19 1870.54C1967.19 1686.4 1906.45 1533.72 1680.53 1533.72C1590.52 1533.72 1498.51 1544.14 1404.29 1556.77L1404.09 1556.57Z" fill="#282828"/>
<path d="M2842.11 1892.22L2836.68 1912.34L3049.57 1969.75L3055 1949.63L2842.11 1892.22Z" fill="#282828"/>
<path d="M113.359 1156.25L107.928 1176.37L320.821 1233.78L326.252 1213.66L113.359 1156.25Z" fill="#282828"/>
<path d="M1232.11 2818.32L1174.63 3031.1L1194.76 3036.53L1252.24 2823.75L1232.11 2818.32Z" fill="#282828"/>
<path d="M1968.68 90.3556L1911.2 303.141L1931.32 308.573L1988.8 95.7876L1968.68 90.3556Z" fill="#282828"/>
</g>
<defs>
<clipPath id="clip0_3073_1525">
<rect width="3047" height="3047" fill="white" transform="translate(58 39)"/>
</clipPath>
</defs>
</svg>
