<svg width="3777" height="3940" viewBox="0 0 3777 3940" fill="none" xmlns="http://www.w3.org/2000/svg">
<g clip-path="url(#clip0_3076_1133)">
<path d="M1595.47 3495.56L1525.73 3772.94L1436.61 3750.6C1419.48 3746.27 1405.11 3738.48 1393.52 3727.57C1381.93 3716.49 1374.14 3703.51 1369.81 3688.27C1365.66 3673.21 1365.49 3657.62 1369.47 3641.87C1373.45 3625.76 1380.89 3612.09 1391.79 3600.66C1402.69 3589.4 1415.67 3581.61 1431.07 3577.46C1446.47 3573.3 1462.74 3573.47 1479.87 3577.8L1540.09 3593.04L1566.39 3488.46L1595.29 3495.73L1595.47 3495.56ZM1473.47 3603.95C1461.87 3601 1450.8 3601 1440.42 3603.95C1430.03 3606.89 1421.03 3612.26 1413.77 3620.4C1406.32 3628.53 1401.31 3638.06 1398.54 3649.31C1395.77 3660.39 1395.77 3671.13 1398.54 3681.52C1401.31 3691.91 1406.5 3700.74 1414.29 3708.18C1422.07 3715.63 1431.76 3720.82 1443.36 3723.76L1503.58 3739L1533.69 3619.36L1473.47 3604.12V3603.95Z" fill="#F6F2EE"/>
<path d="M1249.37 3387L1018.87 3586.46L991.703 3571.4L1037.91 3270.12L1065.08 3285.19L1051.4 3369.16L1158.69 3428.38L1222.38 3372.11L1249.2 3387H1249.37ZM1137.24 3447.42L1047.08 3397.73L1023.2 3546.98L1023.89 3547.33L1137.24 3447.42Z" fill="#F6F2EE"/>
<path d="M867.974 3137.84L667.931 3342.32L598.713 3274.62C586.426 3262.68 578.12 3249.17 573.621 3234.28C569.122 3219.39 568.775 3204.67 572.756 3190.3C576.736 3175.76 584.177 3162.77 595.425 3151.35C606.846 3139.75 619.651 3131.78 634.014 3127.62C648.377 3123.47 663.086 3123.47 677.968 3127.62C693.023 3131.78 706.694 3139.75 718.98 3151.69L766.914 3198.61L846.689 3117.06L867.974 3138.01V3137.84ZM699.945 3171.78C691.293 3163.29 682.121 3157.75 672.258 3154.98C662.394 3152.21 652.703 3152.21 643.186 3154.98C633.668 3157.93 624.843 3163.47 616.709 3171.95C608.576 3180.26 603.039 3189.26 600.443 3198.79C597.847 3208.31 598.02 3218.01 601.135 3227.7C604.25 3237.4 610.134 3246.4 618.613 3254.89L666.201 3301.46L747.706 3218.18L700.118 3171.6L699.945 3171.78ZM754.455 3026.68L711.712 3166.06L688.697 3143.55L730.228 3002.96L754.455 3026.68Z" fill="#F6F2EE"/>
<path d="M567.218 2779.78L346.583 2913.97L389.152 2984.09L365.445 2998.46L264.904 2832.94L288.612 2818.57L331.008 2888.34L551.643 2754.16L567.045 2779.61L567.218 2779.78Z" fill="#F6F2EE"/>
<path d="M421.686 2487.34L146.714 2565.77L139.619 2540.67L316.819 2326.14V2325.45L96.184 2388.3L88.0508 2359.56L363.023 2281.12L370.118 2305.88L193.09 2520.76V2521.45L413.726 2458.6L421.859 2487.34H421.686Z" fill="#F6F2EE"/>
<path d="M332.393 2037.51L46.5191 2038.2L46 1860.03H73.6875L74.0336 2008.25H170.075L169.729 1889.12H197.07L197.416 2008.07L304.532 2007.73L304.013 1855.36H331.874L332.393 2037.51Z" fill="#F6F2EE"/>
<path d="M362.849 1630.44L86.4922 1556.86L111.411 1463.19C115.737 1446.56 123.351 1432.71 134.08 1421.46C144.809 1410.2 157.442 1402.76 171.978 1398.95C186.513 1395.14 201.569 1395.49 216.97 1399.64C232.717 1403.8 246.042 1411.24 256.598 1421.63C267.153 1432.02 274.421 1444.83 278.228 1459.9C282.036 1475.13 281.862 1490.89 277.363 1507.51L260.059 1572.27L370.117 1601.7L362.502 1630.62L362.849 1630.44ZM250.714 1500.76C253.829 1489.16 254.175 1478.42 251.752 1468.38C249.33 1458.51 244.484 1450.03 237.389 1443.1C230.294 1436.18 220.95 1431.33 209.702 1428.38C198.454 1425.44 187.898 1425.09 178.207 1427.35C168.517 1429.77 160.21 1434.62 153.288 1442.06C146.367 1449.51 141.348 1459.03 138.233 1470.63L121.102 1535.04L233.582 1565L250.714 1500.59V1500.76ZM403.861 1476.87L261.443 1508.2L269.749 1477.04L412.513 1443.97L403.861 1476.69V1476.87Z" fill="#F6F2EE"/>
<path d="M540.395 1177.5C533.992 1188.58 526.551 1198.1 517.726 1206.07C509.074 1213.86 499.729 1219.92 489.692 1224.25C479.656 1228.58 469.965 1230.83 460.101 1231.52L453.699 1204.86C466.85 1203.3 478.79 1199.14 489.519 1192.39C500.248 1185.64 509.247 1175.94 516.515 1163.13C522.398 1152.74 525.686 1142.35 526.205 1132.13C526.724 1121.92 524.821 1112.74 520.322 1104.6C515.822 1096.47 509.766 1090.06 501.979 1085.73C492.288 1080.19 482.944 1078.11 474.291 1079.5C465.466 1080.88 457.159 1084.17 449.545 1089.19C441.758 1094.22 432.068 1101.32 420.473 1110.66C406.284 1122.27 394.343 1131.27 384.653 1137.33C374.962 1143.39 363.714 1146.85 351.082 1147.89C338.449 1148.76 325.125 1145.29 310.935 1137.16C298.821 1130.23 289.65 1121.05 283.247 1109.28C276.844 1097.68 273.903 1084.69 274.422 1070.15C274.941 1055.78 279.44 1041.06 288.092 1026.17C293.63 1016.47 300.379 1008.16 308.339 1001.06C316.299 993.965 324.432 988.425 332.912 984.269C341.391 980.114 349.524 977.517 357.311 976.305L363.887 1002.62C358.003 1004.18 351.774 1006.43 345.544 1009.38C339.141 1012.15 333.085 1016.13 327.201 1021.32C321.317 1026.34 316.299 1032.58 312.146 1040.02C306.435 1049.89 303.321 1059.59 302.801 1068.76C302.282 1077.94 304.013 1086.42 307.993 1093.87C311.973 1101.31 317.857 1107.2 325.471 1111.53C334.469 1116.72 343.294 1118.63 351.774 1117.42C360.253 1116.21 368.559 1113.09 376.346 1108.07C384.134 1103.22 393.651 1096.12 404.899 1086.77C418.916 1074.65 431.029 1065.82 441.239 1059.76C451.449 1053.7 462.87 1050.24 475.502 1049.2C488.135 1048.16 501.806 1051.8 516.515 1060.11C528.974 1067.21 538.838 1077.07 545.76 1089.71C552.682 1102.35 555.623 1116.21 554.758 1131.62C553.893 1146.85 549.048 1162.26 540.222 1177.67L540.395 1177.5Z" fill="#F6F2EE"/>
<path d="M929.925 718.324L754.801 492.197L778.335 473.844L953.459 699.971L929.925 718.151V718.324Z" fill="#F6F2EE"/>
<path d="M1165.27 560.065L1048.63 298.79L1072.52 288.055L1309.94 433.15L1310.63 432.803L1217.18 223.472L1244.35 211.352L1360.81 472.627L1337.28 483.189L1099.51 338.267L1098.82 338.613L1192.26 547.945L1165.1 560.065H1165.27Z" fill="#F6F2EE"/>
<path d="M1901.24 384.325C1886.88 384.151 1873.9 381.035 1862.65 375.148C1851.4 369.261 1842.23 361.989 1835.65 353.505L1854.69 335.325C1859.71 341.212 1866.28 346.06 1874.42 350.215C1882.55 354.371 1891.55 356.448 1901.24 356.621C1911.28 356.621 1920.27 354.717 1927.89 350.215C1935.5 345.886 1941.56 339.48 1945.89 330.823C1950.21 322.339 1952.46 312.123 1952.63 300.523L1955.92 95L1985.34 95.5194L1982.05 301.388C1981.88 318.356 1978.25 333.074 1971.32 345.54C1964.4 358.18 1954.88 367.703 1942.94 374.455C1931 381.208 1916.99 384.498 1901.07 384.151L1901.24 384.325Z" fill="#F6F2EE"/>
<path d="M2335.24 445.272C2311.36 438.519 2291.29 426.053 2275.02 407.873C2258.58 389.692 2247.85 368.222 2242.66 343.29C2237.47 318.357 2238.51 292.905 2246.12 266.76C2253.56 240.615 2266.2 218.279 2283.67 199.926C2301.15 181.573 2321.74 168.933 2345.28 162.354C2368.64 155.601 2392.35 155.601 2416.23 162.354C2440.28 169.279 2460.53 181.746 2476.62 199.926C2492.89 217.933 2503.62 239.576 2508.81 264.336C2514 289.269 2512.96 314.721 2505.35 340.866C2497.91 367.01 2485.27 389.346 2467.8 407.699C2450.32 426.053 2429.73 438.692 2406.54 445.445C2383.18 452.198 2359.47 452.198 2335.41 445.445L2335.24 445.272ZM2342.86 418.434C2361.37 423.802 2379.89 423.629 2398.23 418.088C2416.57 412.547 2432.67 402.332 2446.51 387.441C2460.35 372.551 2470.39 354.198 2476.62 332.555C2482.85 310.912 2483.89 289.961 2480.08 270.049C2476.1 250.138 2467.97 232.997 2455.34 218.626C2442.7 204.255 2427.13 194.385 2408.44 189.018C2389.75 183.65 2371.58 183.823 2353.24 189.364C2335.07 194.905 2318.98 205.12 2304.96 220.011C2290.94 234.901 2280.9 253.081 2274.68 274.898C2268.45 296.714 2267.41 317.491 2271.39 337.576C2275.37 357.661 2283.67 374.802 2296.13 389C2308.59 403.371 2324.17 413.24 2342.68 418.434H2342.86Z" fill="#F6F2EE"/>
<path d="M2712.14 604.393L2764.92 518.34L2779.63 310.047L2808.18 327.534L2794.86 497.736L2796.24 498.601L2941.6 409.432L2969.46 426.573L2790.53 533.923L2737.75 619.976L2712.31 604.393H2712.14Z" fill="#F6F2EE"/>
<path d="M2985.21 810.435L3191.65 612.531L3314 740.312L3293.4 760.05L3191.65 653.74L3118.45 723.863L3200.13 809.223L3179.54 828.962L3097.86 743.602L3005.8 831.732L2985.21 810.262V810.435Z" fill="#F6F2EE"/>
<path d="M3281.29 1205.9C3271.95 1188.58 3267.62 1170.75 3268.31 1152.05C3269 1133.35 3274.54 1116.03 3284.58 1099.93C3294.61 1083.83 3308.98 1070.84 3327.15 1060.97L3485.83 974.922L3500.02 1001.07L3341.68 1086.95C3328.01 1094.39 3317.28 1103.91 3309.5 1115.86C3301.71 1127.64 3297.38 1140.45 3296.69 1153.95C3296 1167.46 3298.94 1180.44 3305.52 1192.56C3312.27 1205.03 3321.44 1214.73 3333.2 1221.48C3344.97 1228.23 3357.95 1231.52 3372.14 1231.52C3386.33 1231.52 3400.17 1227.71 3413.84 1220.27L3572.18 1134.39L3586.37 1160.53L3427.69 1246.59C3409.52 1256.45 3391 1261.3 3371.97 1261.3C3353.1 1261.3 3335.45 1256.28 3319.53 1246.76C3303.44 1237.24 3290.63 1223.56 3281.12 1205.72L3281.29 1205.9Z" fill="#F6F2EE"/>
<path d="M3417.13 1526.73L3695.39 1461.11L3702.14 1490.2L3450.88 1549.41L3481.16 1678.23L3454.16 1684.64L3416.96 1526.73H3417.13Z" fill="#F6F2EE"/>
<path d="M3458.14 2183.99L3739 2237.67L3733.46 2266.93L3479.95 2218.62L3455.2 2348.65L3427.86 2343.46L3458.32 2183.99H3458.14Z" fill="#F6F2EE"/>
<path d="M3353.11 2557.63L3615.96 2670.18L3604.2 2697.53L3341.34 2585.16L3353.11 2557.81V2557.63Z" fill="#F6F2EE"/>
<path d="M3179.54 2868.95L3469.74 2956.9L3451.05 2982.35L3201.86 2904.27L3201.34 2904.96L3350.34 3119.83L3332.17 3144.59L3161.2 2894.22L3179.54 2869.12V2868.95Z" fill="#F6F2EE"/>
<path d="M2940.91 3132.48L3123.99 3352.2L3101.15 3371.24L2918.06 3151.52L2940.91 3132.48Z" fill="#F6F2EE"/>
<path d="M2711.97 3304.06L2842.1 3558.76L2818.74 3570.71L2574.05 3438.25L2573.35 3438.6L2677.53 3642.73L2650.88 3656.24L2520.75 3401.54L2543.59 3389.77L2788.63 3522.05L2789.32 3521.71L2685.14 3317.57L2711.79 3304.06H2711.97Z" fill="#F6F2EE"/>
<path d="M2176.21 3496.08C2200.61 3491.58 2224.14 3493.83 2246.81 3502.83C2269.48 3511.84 2288.69 3526.38 2304.44 3546.29C2320.19 3566.2 2330.4 3589.75 2335.24 3616.41C2340.09 3643.08 2338.7 3668.7 2331.09 3692.94C2323.47 3717.18 2310.67 3737.62 2292.67 3754.06C2274.67 3770.51 2253.39 3780.9 2228.99 3785.4C2205.63 3789.73 2184.17 3788.17 2164.62 3780.73C2145.06 3773.28 2127.93 3762.38 2113.22 3747.48L2131.56 3727.57C2144.02 3739.52 2157.87 3748.35 2172.92 3754.24C2188.15 3760.12 2205.11 3761.51 2223.97 3758.05C2243.01 3754.58 2259.45 3746.27 2273.29 3733.29C2287.13 3720.3 2297 3704.03 2303.05 3684.46C2309.11 3664.89 2309.98 3644.12 2306 3621.78C2302.02 3599.45 2293.71 3580.4 2281.08 3564.12C2268.62 3548.02 2253.56 3536.25 2236.09 3528.98C2218.61 3521.7 2200.26 3519.8 2181.23 3523.26C2169.46 3525.34 2158.56 3529.5 2148.7 3535.21C2138.83 3541.1 2130.53 3547.68 2123.95 3555.29C2117.37 3562.91 2112.36 3570.53 2108.9 3577.98L2118.93 3632.69L2181.23 3621.26L2185.9 3647.06L2094.36 3663.86L2077.92 3574.17C2082.42 3562.74 2089.34 3551.83 2098.69 3541.1C2108.03 3530.36 2119.28 3520.84 2132.6 3512.7C2145.93 3504.39 2160.46 3498.85 2176.21 3496.08Z" fill="#F6F2EE"/>
<path d="M1169.25 2445.61C1168.73 2437.47 1168.56 2432.45 1168.04 2425.18C1200.22 2419.81 1231.55 2414.79 1262.87 2409.07C1303.01 2401.63 1315.99 2389.16 1321.01 2347.78C1325.68 2308.48 1329.84 2268.83 1330.18 2229.35C1331.22 2063.3 1331.57 1897.26 1330.18 1731.39C1329.66 1683.43 1324.3 1635.12 1317.2 1587.68C1311.84 1552.01 1296.44 1540.93 1260.62 1536.08C1235.18 1532.62 1209.57 1530.02 1184.3 1525.34C1177.38 1524.13 1171.84 1516.34 1165.62 1511.67C1166.83 1509.07 1168.21 1506.47 1169.42 1503.87C1177.56 1503.36 1185.86 1502.49 1193.99 1502.49C1340.57 1502.49 1487.14 1501.28 1633.71 1503.18C1676.1 1503.7 1719.37 1509.07 1760.72 1519.11C1891.72 1550.97 1947.62 1690.18 1878.74 1806.88C1850.36 1855.01 1811.77 1892.58 1763.49 1920.11C1756.4 1924.27 1749.48 1928.77 1740.31 1934.31C1770.24 1941.41 1797.58 1946.09 1823.89 1954.22C1900.89 1978.46 1957.83 2023.31 1973.92 2107.46C1993.65 2211.34 1959.21 2296.01 1880.13 2363.36C1814.02 2419.81 1735.46 2445.09 1649.46 2445.61C1499.77 2446.65 1350.08 2445.95 1200.4 2445.95H1169.42L1169.25 2445.61ZM1439.55 1969.81C1441.63 2122 1434.18 2271.6 1452.53 2423.27C1521.57 2415.48 1585.95 2410.29 1649.46 2400.07C1693.58 2392.97 1737.54 2381.02 1780.11 2367C1825.44 2351.94 1849.84 2316.96 1855.9 2269.52C1863 2213.42 1861.96 2157.67 1848.81 2102.61C1827.52 2013.27 1773.18 1965.48 1681.64 1955.44C1601.35 1946.61 1522.27 1960.63 1439.38 1969.81H1439.55ZM1439.55 1931.37C1451.84 1931.37 1461.01 1931.37 1470.18 1931.37C1537.84 1931.37 1605.85 1927.91 1673.34 1932.75C1710.37 1935.52 1730.44 1919.59 1747.92 1893.62C1757.44 1879.6 1765.57 1864.19 1771.63 1848.26C1793.43 1790.43 1798.8 1730.52 1790.14 1669.23C1782.18 1613.3 1753.28 1574.17 1699.81 1555.13C1620.73 1526.9 1538.19 1529.33 1452.18 1525.69C1434.36 1660.4 1441.45 1793.89 1439.55 1931.2V1931.37Z" fill="#F6F2EE"/>
<path d="M2048.33 1739.53C2057.15 1682.74 2062.52 1624.56 2102.49 1577.98C2125.85 1550.63 2161.5 1551.49 2186.77 1577.29C2217.4 1608.8 2225.7 1648.28 2212.38 1687.58C2198.01 1730 2175 1769.31 2156.31 1810.34C2146.62 1831.47 2135.2 1852.76 2130.7 1875.1C2127.06 1893.11 2128.8 1914.23 2134.68 1931.72C2144.37 1960.11 2172.06 1972.58 2198.88 1959.25C2223.45 1947.13 2246.12 1929.64 2266.37 1910.94C2282.63 1895.88 2294.23 1875.62 2307.21 1857.09C2325.38 1830.95 2333.51 1802.9 2333.34 1769.83C2333.16 1722.56 2339.05 1675.29 2343.72 1628.02C2345.8 1606.55 2351.33 1585.43 2355.83 1562.05C2378.16 1563.61 2398.75 1565.17 2424.53 1566.9C2421.42 1584.39 2420.38 1600.49 2415.36 1615.38C2395.98 1674.42 2374.52 1732.95 2355.66 1791.99C2350.99 1806.71 2348.56 1824.37 2352.37 1838.91C2361.54 1873.19 2372.1 1907.65 2387.85 1939.16C2402.21 1967.73 2428.69 1973.1 2455.16 1954.57C2472.99 1942.11 2489.25 1924.44 2499.81 1905.57C2539.26 1835.45 2549.99 1757.19 2555.36 1678.58C2557.95 1640.83 2555.88 1602.57 2555.88 1560.84C2585.47 1563.44 2610.39 1565.52 2639.28 1568.11C2628.56 1608.8 2619.73 1647.24 2608.14 1684.99C2579.93 1775.89 2547.4 1865.06 2497.39 1946.61C2481.29 1972.75 2461.39 1997.69 2439.41 2018.98C2416.05 2041.49 2392.52 2036.12 2375.73 2007.9C2349.43 1964.1 2343.55 1914.23 2337.14 1864.88C2336.62 1860.21 2336.45 1855.71 2335.59 1851.03C2335.41 1849.82 2333.86 1848.61 2332.47 1847.05C2314.65 1875.96 2299.42 1905.92 2279.17 1931.89C2255.47 1962.19 2228.64 1990.93 2200.26 2016.9C2176.38 2038.72 2152.68 2036.99 2125.51 2018.98C2072.73 1983.83 2054.73 1914.4 2087.61 1858.3C2109.59 1820.9 2137.62 1786.97 2161.85 1750.95C2173.96 1732.95 2186.07 1714.42 2194.38 1694.51C2206.32 1665.59 2194.21 1644.47 2164.1 1635.47C2125.85 1624.04 2092.28 1640.66 2076.36 1680.66C2068.4 1700.57 2062.86 1721.35 2056.12 1741.78C2053.69 1741.08 2051.1 1740.22 2048.67 1739.53H2048.33Z" fill="#F6F2EE"/>
<path d="M2419.17 2409.77C2403.77 2352.8 2354.97 2177.93 2311.88 2090.14C2309.63 2085.64 2305.3 2083.56 2300.98 2083.56C2296.65 2083.56 2292.33 2085.47 2290.08 2090.14C2246.99 2177.93 2198.19 2352.63 2182.79 2409.77C2180.54 2418.25 2187.98 2425.87 2196.46 2423.96L2282.64 2368.73C2282.64 2368.73 2292.33 2362.84 2300.81 2362.84C2309.28 2362.84 2318.46 2368.56 2318.46 2368.56L2405.15 2423.79C2413.63 2425.7 2421.25 2417.9 2418.82 2409.59L2419.17 2409.77Z" fill="#F6F2EE"/>
<path d="M2419.17 2409.77C2403.77 2352.8 2354.97 2177.93 2311.88 2090.14C2309.63 2085.64 2305.3 2083.56 2300.98 2083.56C2296.65 2083.56 2292.33 2085.47 2290.08 2090.14C2246.99 2177.93 2198.19 2352.63 2182.79 2409.77C2180.54 2418.25 2187.98 2425.87 2196.46 2423.96L2282.64 2368.73C2282.64 2368.73 2292.33 2362.84 2300.81 2362.84C2309.28 2362.84 2318.46 2368.56 2318.46 2368.56L2405.15 2423.79C2413.63 2425.7 2421.25 2417.9 2418.82 2409.59L2419.17 2409.77Z" fill="#F6F2EE"/>
</g>
<defs>
<clipPath id="clip0_3076_1133">
<rect width="3693" height="3693" fill="white" transform="translate(46 95)"/>
</clipPath>
</defs>
</svg>
