<svg width="6202" height="954" viewBox="0 0 6202 954" fill="none" xmlns="http://www.w3.org/2000/svg">
<g clip-path="url(#clip0_3076_1404)">
<path d="M110.242 881.92V867.471L182.715 855.392C234.643 845.684 235.772 838.459 235.772 533.103C235.772 192.752 234.53 190.269 176.619 181.915L109 172.207V157.758H456.578C613.491 157.758 676.256 212.056 676.256 314.669C676.256 391.883 609.879 463.114 538.647 490.884C681.11 504.204 732.925 570.581 732.925 665.857C732.925 779.307 621.845 881.92 474.64 881.92H110.242ZM525.439 489.642C567.659 461.872 591.817 400.349 591.817 325.506C591.817 199.977 529.052 178.303 328.678 174.691C321.453 201.219 317.841 238.697 317.841 488.513C372.139 487.271 425.309 488.513 479.607 488.513C495.299 488.513 510.99 488.513 525.439 489.755V489.642ZM317.841 516.283C317.841 791.498 321.453 837.33 328.678 865.1C619.587 842.184 642.503 814.414 642.503 697.352C642.503 591.126 607.508 503.075 477.124 503.075C425.196 503.075 372.139 509.058 317.841 516.396V516.283Z" fill="white"/>
<path d="M1335.29 517.415L1251.98 537.96L895.934 534.348V557.264C895.934 741.945 986.469 824.013 1121.59 824.013C1227.82 824.013 1290.59 779.31 1330.43 659.877L1341.27 665.86C1302.66 820.4 1225.45 894.002 1081.75 894.002C913.996 894.002 806.527 782.922 806.527 588.646C806.527 420.898 917.608 301.352 1115.5 301.352C1257.96 301.352 1340.03 377.437 1335.18 517.415H1335.29ZM897.175 525.881L1214.61 513.803C1240.01 511.432 1246 496.87 1246 476.437C1246 385.903 1174.76 321.897 1078.25 321.897C969.649 321.897 905.642 394.369 897.175 525.881Z" fill="white"/>
<path d="M1418.6 143.31L1363.06 136.085V122.764C1476.51 104.703 1510.26 91.3822 1535.66 60L1547.74 61.2417C1546.5 192.754 1546.5 319.524 1546.5 451.149C1546.5 839.815 1546.5 844.669 1580.25 854.264L1649 867.585V882.034H1361.71V867.585L1411.15 860.36C1463.08 851.894 1463.08 844.669 1463.08 600.836C1463.08 157.872 1460.71 150.647 1418.37 143.423L1418.6 143.31Z" fill="white"/>
<path d="M1775.89 143.31L1720.35 136.085V122.764C1833.8 104.703 1867.55 91.3822 1892.95 60L1905.03 61.2417C1903.79 192.754 1903.79 319.524 1903.79 451.149C1903.79 839.815 1903.79 844.669 1937.54 854.264L2006.29 867.585V882.034H1718.99V867.585L1768.44 860.36C1820.36 851.894 1820.36 844.669 1820.36 600.836C1820.36 157.872 1817.99 150.647 1775.66 143.423L1775.89 143.31Z" fill="white"/>
<path d="M2495.2 894.002C2444.51 894.002 2409.52 786.535 2401.05 642.944C2395.07 656.264 2387.73 670.714 2380.51 685.163C2324.97 793.759 2234.43 894.002 2187.36 894.002C2128.21 894.002 2069.05 822.771 2069.05 747.928C2069.05 642.944 2230.82 523.398 2230.82 443.813C2230.82 416.043 2204.29 390.757 2157.22 390.757C2110.14 390.757 2073.91 412.431 2049.75 531.977L2040.04 528.365C2062.96 357.004 2108.79 299.094 2163.2 299.094C2207.9 299.094 2252.49 357.004 2252.49 422.252C2252.49 517.641 2136.67 641.928 2136.67 726.366C2136.67 775.81 2165.68 810.805 2206.66 810.805C2270.67 808.434 2347.88 722.641 2399.81 615.287C2396.2 517.528 2404.67 406.448 2427.58 303.835C2449.26 306.206 2484.36 308.689 2512.02 309.818C2497.57 394.256 2477.03 478.808 2414.26 615.174C2426.34 729.866 2467.32 811.934 2512.02 810.692C2567.56 810.692 2608.54 758.765 2636.31 676.697C2667.69 588.533 2687 464.246 2683.38 302.48C2720.75 306.093 2751 309.705 2781.14 310.947C2719.62 593.387 2578.4 893.889 2495.09 893.889L2495.2 894.002Z" fill="white"/>
<path d="M3337.67 517.415L3254.36 537.96L2898.32 534.348V557.264C2898.32 741.945 2988.85 824.013 3123.98 824.013C3230.21 824.013 3292.97 779.31 3332.82 659.877L3343.66 665.86C3305.05 820.4 3227.84 894.002 3084.13 894.002C2916.38 894.002 2808.91 782.922 2808.91 588.646C2808.91 420.898 2919.99 301.352 3117.88 301.352C3260.35 301.352 3342.42 377.437 3337.56 517.415H3337.67ZM2899.56 525.881L3217 513.803C3242.4 511.432 3248.38 496.87 3248.38 476.437C3248.38 385.903 3177.15 321.897 3080.63 321.897C2972.03 321.897 2908.03 394.369 2899.56 525.881Z" fill="white"/>
<path d="M3777.03 767.344H3771.05C3742.04 836.091 3662.45 894.115 3576.77 894.115C3470.54 894.115 3410.15 833.721 3410.15 764.973C3410.15 696.226 3510.28 657.506 3778.27 603.208V556.135C3778.27 383.532 3756.6 335.217 3657.6 335.217C3565.82 335.217 3518.75 375.066 3518.75 463.117C3518.75 484.791 3522.36 518.657 3525.97 548.797L3435.44 563.247C3431.82 385.79 3576.66 301.352 3697.33 301.352C3808.41 301.352 3861.47 349.667 3861.47 464.246C3861.47 501.611 3857.86 569.229 3857.86 621.157C3857.86 800.984 3865.08 827.512 3896.46 827.512C3927.85 827.512 3947.15 796.13 3959.23 654.91H3971.31C3957.99 823.9 3930.22 887.906 3862.71 887.906C3807.17 887.906 3778.27 849.299 3777.03 767.231V767.344ZM3772.18 734.72C3777.03 709.321 3778.16 692.501 3778.16 630.865C3680.4 645.315 3594.72 661.006 3534.32 680.309C3504.18 688.776 3489.62 703.225 3489.62 727.382C3489.62 786.535 3537.94 822.771 3632.08 822.771C3687.62 822.771 3762.47 796.243 3772.06 734.607L3772.18 734.72Z" fill="white"/>
<path d="M4206.68 894.001C4102.82 894.001 4071.44 833.607 4071.44 752.781C4071.44 714.174 4076.29 646.555 4076.29 586.161C4076.29 505.335 4076.29 440.087 4071.44 366.486C4040.06 366.486 4008.68 366.486 3977.29 367.727V355.649C4094.36 327.879 4112.53 314.558 4153.51 195.125L4165.59 197.496C4161.98 232.49 4159.6 271.097 4158.36 313.316H4385.27L4364.72 372.469C4295.97 368.856 4227.11 366.486 4157.12 365.244C4155.88 430.379 4155.88 499.239 4155.88 565.616C4155.88 621.156 4155.88 679.066 4158.25 734.606C4163.1 804.595 4194.49 831.123 4251.16 831.123C4326 831.123 4346.55 764.747 4365.85 644.072L4379.17 645.313C4357.5 817.916 4305.57 894.001 4206.57 894.001H4206.68Z" fill="white"/>
<path d="M4416.65 134.843V122.764C4509.55 108.315 4560.24 92.624 4591.62 60L4601.33 62.3706C4598.96 222.894 4595.35 353.277 4594.1 471.581L4601.33 472.823C4621.88 384.659 4708.8 301.463 4843.92 301.463C4959.75 301.463 5006.82 352.148 5006.82 451.149C5006.82 517.526 5004.45 595.982 5004.45 662.358C5004.45 838.573 5009.3 851.894 5045.54 859.118L5097.47 867.585V882.034H4792.11V867.585L4883.89 856.748C4921.25 850.765 4922.49 832.59 4922.49 586.386C4922.49 411.413 4905.56 364.34 4789.74 364.34C4696.83 364.34 4599.07 411.413 4599.07 538.184C4599.07 839.928 4603.93 849.636 4637.68 855.619L4733.07 867.698V882.147H4415.63V867.698L4456.72 861.715C4514.63 853.248 4515.87 846.024 4515.87 610.657C4515.87 161.71 4513.5 150.76 4472.41 143.535L4416.87 135.069L4416.65 134.843Z" fill="white"/>
<path d="M5636.95 517.415L5553.64 537.96L5197.6 534.348V557.264C5197.6 741.945 5288.13 824.013 5423.26 824.013C5529.48 824.013 5592.25 779.31 5632.1 659.877L5642.94 665.86C5604.33 820.4 5527.11 894.002 5383.41 894.002C5215.66 894.002 5108.19 782.922 5108.19 588.646C5108.19 420.898 5219.27 301.352 5417.16 301.352C5559.63 301.352 5641.69 377.437 5636.84 517.415H5636.95ZM5198.84 525.881L5516.28 513.803C5541.68 511.432 5547.66 496.87 5547.66 476.437C5547.66 385.903 5476.43 321.897 5379.91 321.897C5271.31 321.897 5207.31 394.369 5198.84 525.881Z" fill="white"/>
<path d="M5752.89 382.29L5696.1 377.436V364.115C5766.09 348.424 5822.88 327.879 5865.1 307.334L5874.8 310.946C5874.8 370.098 5872.43 438.846 5871.19 506.464L5878.42 507.706C5902.57 396.626 5981.03 301.351 6088.39 298.867C6089.63 329.008 6092 371.227 6092 401.48C6078.68 401.48 6060.62 399.11 6044.93 399.11C5961.61 399.11 5878.3 448.554 5878.3 563.246C5878.3 839.703 5883.16 849.298 5913.3 852.911L6026.75 867.36V881.809H5695.99V867.36L5753.9 857.652C5793.75 850.427 5796.12 839.59 5796.12 624.656C5796.12 392.901 5792.51 386.918 5752.66 382.064L5752.89 382.29Z" fill="white"/>
</g>
<defs>
<clipPath id="clip0_3076_1404">
<rect width="5983" height="834" fill="white" transform="translate(109 60)"/>
</clipPath>
</defs>
</svg>
