<svg width="4505" height="2914" viewBox="0 0 4505 2914" fill="none" xmlns="http://www.w3.org/2000/svg">
<g clip-path="url(#clip0_3076_1093)">
<path d="M73.2739 2860.29C71.8641 2836.31 71.1592 2821.5 69.7493 2799.64C164.914 2783.42 257.964 2768.96 350.308 2752.03C469.088 2730.17 507.506 2693.14 522.309 2570.77C536.408 2454.4 548.744 2337.32 549.449 2220.24C552.268 1729.01 553.326 1237.78 549.096 746.543C547.686 604.428 531.826 461.96 510.678 321.255C494.817 215.461 449.35 183.018 343.259 168.207C267.832 157.628 192.053 150.222 117.684 136.116C97.2413 132.237 80.6756 109.668 62.3477 95.5623C66.2247 87.8041 69.7493 80.046 73.6264 72.6405C97.9462 71.2299 122.266 68.4087 146.586 68.4087C580.113 68.4087 1013.99 64.8823 1447.52 70.5246C1573 72.2878 1701.29 88.1568 1823.24 117.779C2210.95 212.288 2376.25 624.176 2172.53 969.415C2088.65 1111.88 1974.45 1222.97 1831.35 1304.43C1810.2 1316.42 1789.76 1329.82 1762.62 1346.74C1851.09 1367.55 1932.15 1381.3 2010.05 1405.99C2237.74 1477.57 2406.21 1610.17 2453.8 1859.49C2512.3 2166.99 2410.09 2417.37 2176.41 2616.62C1980.44 2783.42 1748.52 2858.18 1494.04 2859.94C1051 2863.11 608.31 2860.65 165.266 2860.65H73.2739V2860.29ZM873.36 1452.18C879.705 1902.51 857.147 2345.08 911.779 2794.35C1116.21 2771.07 1306.89 2755.91 1494.75 2725.58C1625.51 2704.42 1755.22 2669.51 1881.4 2627.55C2015.33 2582.76 2087.94 2479.44 2105.92 2338.73C2127.06 2172.99 2123.89 2007.6 2085.12 1845.03C2022.03 1580.9 1860.96 1439.14 1590.62 1409.16C1352.71 1383.07 1118.67 1424.68 874.065 1451.83L873.36 1452.18ZM873.36 1338.28C910.016 1338.28 937.156 1338.28 964.295 1338.28C1164.85 1338.28 1365.75 1328.05 1565.24 1342.51C1674.86 1350.62 1734.42 1303.72 1786.23 1226.84C1814.08 1185.23 1838.75 1139.74 1856.37 1092.84C1920.87 921.455 1936.74 744.78 1911.01 563.168C1887.39 397.426 1802.1 282.111 1643.49 225.688C1409.45 142.464 1164.85 149.164 910.721 138.585C858.205 537.073 879 932.034 873.36 1338.63V1338.28Z" fill="#F6F2EE"/>
<path d="M2674.79 770.531C2700.88 602.672 2716.74 430.229 2834.81 292.345C2904.25 211.59 3009.28 213.706 3084.35 290.582C3175.29 383.68 3199.61 500.405 3160.13 617.131C3117.48 742.672 3049.46 859.044 2994.12 980.354C2965.57 1043.12 2931.74 1105.9 2917.99 1172.19C2907.06 1225.44 2912.35 1287.86 2929.97 1339.7C2958.52 1423.63 3040.65 1460.66 3119.95 1421.16C3192.56 1385.19 3259.88 1333.7 3319.44 1278.34C3367.38 1233.55 3401.92 1173.96 3439.99 1119.3C3493.91 1042.07 3517.53 958.843 3517.17 861.16C3516.47 721.161 3534.09 581.161 3547.84 441.514C3554.18 378.038 3570.4 315.62 3583.44 246.501C3649.7 251.086 3710.68 255.67 3786.81 260.96C3777.29 312.799 3774.12 360.406 3760.02 404.133C3702.57 579.045 3639.48 751.841 3583.44 927.105C3569.69 970.48 3562.29 1023.02 3573.57 1065.69C3600.71 1166.9 3631.72 1269.17 3678.6 1362.27C3720.9 1446.55 3799.5 1462.77 3877.74 1407.76C3930.26 1371.08 3978.55 1318.54 4009.92 1262.82C4126.58 1055.11 4158.65 823.78 4174.16 591.035C4181.56 479.247 4175.57 366.401 4175.57 242.622C4262.98 250.381 4337 256.728 4422.65 264.134C4390.93 384.385 4364.84 498.289 4330.3 609.725C4246.77 878.44 4150.19 1142.92 4002.51 1383.78C3954.93 1461.36 3896.07 1534.71 3830.87 1597.83C3761.78 1664.48 3692.35 1648.61 3642.3 1565.39C3564.4 1435.62 3547.13 1288.21 3528.45 1141.87C3526.69 1128.11 3526.34 1114.36 3523.87 1100.96C3523.17 1097.08 3518.58 1093.91 3514.71 1088.97C3461.84 1174.66 3417.08 1263.53 3356.81 1340.05C3286.31 1429.98 3207.36 1514.61 3123.12 1591.49C3052.28 1656.02 2982.49 1651.08 2902.13 1597.48C2745.99 1493.45 2692.42 1287.86 2790.05 1122.12C2855.25 1011.39 2938.08 911.236 3009.98 804.385C3045.93 751.135 3081.53 696.475 3106.21 637.584C3141.8 551.891 3105.85 489.473 3016.68 463.025C2903.54 429.171 2804.15 478.541 2756.92 596.677C2733.3 655.569 2716.74 716.929 2697 777.231C2689.6 775.115 2682.55 772.999 2675.15 770.531H2674.79Z" fill="#F6F2EE"/>
<path d="M3772.01 2754.15C3726.54 2585.58 3582.03 2068.25 3454.44 1808.35C3447.74 1794.95 3435.05 1788.61 3422.36 1788.96C3409.68 1788.61 3396.64 1794.95 3390.29 1808.35C3263.05 2067.9 3118.54 2585.23 3072.72 2754.15C3066.03 2779.18 3088.23 2802.11 3113.26 2796.46L3368.44 2633.19C3368.44 2633.19 3397.34 2615.91 3422.36 2615.91C3447.39 2615.91 3474.53 2632.84 3474.53 2632.84L3731.12 2796.46C3756.15 2802.11 3778.35 2779.18 3771.65 2754.15H3772.01Z" fill="#F6F2EE"/>
</g>
<defs>
<clipPath id="clip0_3076_1093">
<rect width="4361" height="2794" fill="white" transform="translate(62 67)"/>
</clipPath>
</defs>
</svg>
